<?xml version="1.0" encoding="utf-8"?>
<!-- Generator: Adobe Illustrator 23.0.1, SVG Export Plug-In . SVG Version: 6.00 Build 0)  -->
<svg version="1.1" id="Слой_1" xmlns="http://www.w3.org/2000/svg" xmlns:xlink="http://www.w3.org/1999/xlink" x="0px" y="0px"
	 viewBox="0 0 100 100" style="enable-background:new 0 0 100 100;" xml:space="preserve">
<style type="text/css">
	.st0{fill:rgba(58, 80, 107, 1);}
</style>
<g>
	<path class="st0" d="M95.06,37.86c-1.88,0-3.45,4.07-3.84,9.52H77.76c-0.54-5.72-2.8-10.95-6.28-15.14L81,22.71
		c4.12,3.57,8.12,5.34,9.45,4.01c1.54-1.54-1.06-6.63-5.8-11.37c-4.74-4.74-9.83-7.34-11.37-5.8c-1.33,1.33,0.44,5.32,4.01,9.45
		l-9.52,9.52c-4.19-3.48-9.42-5.74-15.14-6.28V8.78c5.44-0.39,9.52-1.96,9.52-3.84C62.14,2.76,56.71,1,50,1S37.86,2.76,37.86,4.94
		c0,1.88,4.07,3.45,9.52,3.84v13.46c-5.72,0.54-10.95,2.8-15.14,6.28L22.71,19c3.57-4.12,5.34-8.12,4.01-9.45
		c-1.54-1.54-6.63,1.06-11.37,5.8c-4.74,4.74-7.34,9.83-5.8,11.37c1.33,1.33,5.32-0.44,9.45-4.01l9.52,9.52
		c-3.48,4.19-5.74,9.42-6.28,15.14H8.78c-0.39-5.44-1.96-9.52-3.84-9.52C2.76,37.86,1,43.29,1,50s1.76,12.14,3.94,12.14
		c1.88,0,3.45-4.07,3.84-9.52h13.46c0.54,5.72,2.8,10.95,6.28,15.14L19,77.29c-4.12-3.57-8.12-5.34-9.45-4.01
		c-1.54,1.54,1.06,6.63,5.8,11.37c4.74,4.74,9.83,7.34,11.37,5.8c1.33-1.33-0.44-5.32-4.01-9.45l9.52-9.52
		c4.19,3.48,9.42,5.74,15.14,6.28v13.46c-5.44,0.39-9.52,1.96-9.52,3.84C37.86,97.24,43.29,99,50,99s12.14-1.76,12.14-3.94
		c0-1.88-4.07-3.45-9.52-3.84V77.76c5.72-0.54,10.95-2.8,15.14-6.28L77.29,81c-3.57,4.12-5.34,8.11-4.01,9.45
		c1.54,1.54,6.63-1.06,11.37-5.8c4.74-4.74,7.34-9.83,5.8-11.37c-1.33-1.33-5.32,0.44-9.45,4.01l-9.52-9.52
		c3.48-4.19,5.74-9.42,6.28-15.14h13.46c0.39,5.44,1.96,9.52,3.84,9.52C97.24,62.14,99,56.71,99,50S97.24,37.86,95.06,37.86z
		 M50,72.31C37.7,72.31,27.69,62.3,27.69,50c0-12.3,10.01-22.31,22.31-22.31c12.3,0,22.31,10.01,22.31,22.31
		C72.31,62.3,62.3,72.31,50,72.31z"/>
	<circle class="st0" cx="50" cy="50" r="11.87"/>
</g>
</svg>
